<svg xmlns="http://www.w3.org/2000/svg" viewBox="0 6.050000190734863 183.4499969482422 39.35000228881836" data-asc="0.7" width="183.4499969482422" height="39.35000228881836"><defs/><g fill="#000000"><g transform="translate(0, 0)"><path d="M0 14.47L3.70 14.47L3.70 6.05L10 6.05L10 14.47L14.85 14.47L14.85 19.75L10 19.75L10 27.18Q10 28.65 10.47 29.46Q10.95 30.27 11.97 30.27Q12.75 30.27 13.25 29.96Q13.75 29.65 13.85 29.52L16.10 34.08Q15.95 34.23 15.14 34.60Q14.32 34.98 13.06 35.29Q11.80 35.60 10.22 35.60Q7.40 35.60 5.55 33.96Q3.70 32.33 3.70 28.88L3.70 19.75L0 19.75L0 14.47ZM24.02 26.15Q24.10 27.55 24.77 28.65Q25.45 29.75 26.74 30.38Q28.02 31 29.83 31Q31.45 31 32.69 30.60Q33.92 30.20 34.79 29.61Q35.65 29.02 36.08 28.48L38.70 32.38Q38 33.25 36.84 33.99Q35.67 34.73 33.89 35.16Q32.10 35.60 29.43 35.60Q26.05 35.60 23.50 34.27Q20.95 32.95 19.52 30.45Q18.10 27.95 18.10 24.50Q18.10 21.50 19.38 19.09Q20.65 16.68 23.09 15.27Q25.52 13.88 28.95 13.88Q32.17 13.88 34.54 15.11Q36.90 16.35 38.20 18.72Q39.50 21.10 39.50 24.52Q39.50 24.73 39.49 25.34Q39.48 25.95 39.42 26.15L24.02 26.15M33.55 22.23Q33.53 21.42 33.06 20.50Q32.60 19.57 31.63 18.93Q30.65 18.27 29.02 18.27Q27.40 18.27 26.36 18.90Q25.33 19.52 24.80 20.44Q24.27 21.35 24.20 22.23L33.55 22.23ZM70.63 13.88Q72.93 13.88 74.64 14.85Q76.35 15.82 77.31 17.84Q78.28 19.85 78.28 23L78.28 35L72.03 35L72.03 24.02Q72.03 21.42 71.26 19.98Q70.50 18.52 68.38 18.52Q67.18 18.52 66.18 19.16Q65.18 19.80 64.59 21.02Q64 22.25 64 24.02L64 35L58.15 35L58.15 24.02Q58.15 21.42 57.28 19.98Q56.40 18.52 54.50 18.52Q53.28 18.52 52.29 19.15Q51.30 19.77 50.74 20.99Q50.18 22.20 50.18 24.02L50.18 35L43.88 35L43.88 14.47L50.18 14.47L50.18 17.47Q50.45 16.70 51.44 15.88Q52.43 15.05 53.90 14.46Q55.38 13.88 57.08 13.88Q58.92 13.88 60.15 14.50Q61.38 15.13 62.14 16.09Q62.90 17.05 63.30 18.10Q63.65 17.13 64.68 16.15Q65.70 15.17 67.25 14.52Q68.80 13.88 70.63 13.88ZM89.60 45.40L83.30 45.40L83.30 14.47L89.67 14.47L89.67 17.80Q89.97 17.07 90.97 16.15Q91.97 15.22 93.59 14.55Q95.20 13.88 97.28 13.88Q100.20 13.88 102.38 15.30Q104.55 16.72 105.74 19.19Q106.92 21.65 106.92 24.75Q106.92 27.85 105.67 30.31Q104.42 32.77 102.20 34.19Q99.97 35.60 97.03 35.60Q94.80 35.60 93.20 34.80Q91.60 34 90.70 33Q89.80 32 89.60 31.43L89.60 45.40M100.70 24.75Q100.70 23.02 99.96 21.71Q99.22 20.40 98 19.66Q96.78 18.93 95.28 18.93Q93.70 18.93 92.42 19.67Q91.15 20.42 90.41 21.74Q89.67 23.05 89.67 24.75Q89.67 26.45 90.41 27.76Q91.15 29.07 92.42 29.81Q93.70 30.55 95.28 30.55Q96.78 30.55 98 29.82Q99.22 29.10 99.96 27.79Q100.70 26.48 100.70 24.75ZM121.10 35.60Q117.82 35.60 115.26 34.20Q112.70 32.80 111.25 30.36Q109.80 27.93 109.80 24.80Q109.80 21.67 111.25 19.21Q112.70 16.75 115.26 15.31Q117.82 13.88 121.10 13.88Q124.40 13.88 126.92 15.31Q129.45 16.75 130.88 19.21Q132.30 21.67 132.30 24.80Q132.30 27.93 130.88 30.36Q129.45 32.80 126.92 34.20Q124.40 35.60 121.10 35.60M121.10 30.32Q122.67 30.32 123.84 29.61Q125 28.90 125.64 27.64Q126.27 26.38 126.27 24.77Q126.27 23.17 125.64 21.90Q125 20.63 123.84 19.89Q122.67 19.15 121.10 19.15Q119.52 19.15 118.36 19.89Q117.20 20.63 116.55 21.90Q115.90 23.17 115.90 24.77Q115.90 26.38 116.55 27.64Q117.20 28.90 118.36 29.61Q119.52 30.32 121.10 30.32ZM149.65 13.88Q151.75 13.88 153.75 14.74Q155.75 15.60 157.04 17.47Q158.32 19.35 158.32 22.38L158.32 35L151.95 35L151.95 23.48Q151.95 20.95 150.76 19.73Q149.57 18.50 147.65 18.50Q146.40 18.50 145.26 19.19Q144.13 19.88 143.41 21.09Q142.70 22.30 142.70 23.85L142.70 35L136.35 35L136.35 14.47L142.70 14.47L142.70 17.75Q142.97 16.90 143.95 16Q144.93 15.10 146.43 14.49Q147.93 13.88 149.65 13.88ZM167.97 26.15Q168.05 27.55 168.72 28.65Q169.40 29.75 170.69 30.38Q171.97 31 173.77 31Q175.40 31 176.64 30.60Q177.88 30.20 178.74 29.61Q179.60 29.02 180.02 28.48L182.65 32.38Q181.95 33.25 180.79 33.99Q179.63 34.73 177.84 35.16Q176.05 35.60 173.38 35.60Q170 35.60 167.45 34.27Q164.90 32.95 163.47 30.45Q162.05 27.95 162.05 24.50Q162.05 21.50 163.32 19.09Q164.60 16.68 167.04 15.27Q169.47 13.88 172.90 13.88Q176.13 13.88 178.49 15.11Q180.85 16.35 182.15 18.72Q183.45 21.10 183.45 24.52Q183.45 24.73 183.44 25.34Q183.42 25.95 183.38 26.15L167.97 26.15M177.50 22.23Q177.47 21.42 177.01 20.50Q176.55 19.57 175.57 18.93Q174.60 18.27 172.97 18.27Q171.35 18.27 170.31 18.90Q169.27 19.52 168.75 20.44Q168.22 21.35 168.15 22.23L177.50 22.23Z"/></g></g></svg>